HIERARCHY
ROOT SpineBase
{
  OFFSET 0.000000 0.000000 0.000000
  CHANNELS 6 Xposition Yposition Zposition Zrotation Xrotation Yrotation
  JOINT SpineMid
  {
    OFFSET -0.000000 25.684606 0.000000
    CHANNELS 3 Zrotation Xrotation Yrotation
    JOINT SpineShoulder
    {
      OFFSET -0.051107 19.165342 -0.675725
      CHANNELS 3 Zrotation Xrotation Yrotation
      JOINT Neck
      {
        OFFSET -0.036295 6.374836 -0.499574
        CHANNELS 3 Zrotation Xrotation Yrotation
        JOINT Head
        {
          OFFSET -3.250679 11.580603 0.741669
          CHANNELS 3 Zrotation Xrotation Yrotation
          End Site
          {
            OFFSET 0 0 0
          }
        }
      }
      JOINT ShoulderLeft
      {
        OFFSET -13.764505 -3.430151 6.253496
        CHANNELS 3 Zrotation Xrotation Yrotation
        JOINT ElbowLeft
        {
          OFFSET -8.420281 -13.566253 11.805212
          CHANNELS 3 Zrotation Xrotation Yrotation
          JOINT WristLeft
          {
            OFFSET 12.943731 -1.506175 -25.889684
            CHANNELS 3 Zrotation Xrotation Yrotation
            JOINT HandLeft
            {
              OFFSET -7.243582 3.771427 -16.107666
              CHANNELS 3 Zrotation Xrotation Yrotation
              JOINT HandTipLeft
              {
                OFFSET 1.576028 2.741938 -6.700523
                CHANNELS 3 Zrotation Xrotation Yrotation
                End Site
                {
                  OFFSET 0 0 0
                }
              }
              JOINT ThumbLeft
              {
                OFFSET 3.730011 1.340339 -5.155327
                CHANNELS 3 Zrotation Xrotation Yrotation
                End Site
                {
                  OFFSET 0 0 0
                }
              }
            }
          }
        }
      }
      JOINT ShoulderRight
      {
        OFFSET 11.896534 -0.656674 -5.633859
        CHANNELS 3 Zrotation Xrotation Yrotation
        JOINT ElbowRight
        {
          OFFSET 5.384577 -20.150885 -3.091052
          CHANNELS 3 Zrotation Xrotation Yrotation
          JOINT WristRight
          {
            OFFSET -24.651408 -2.288424 -8.436298
            CHANNELS 3 Zrotation Xrotation Yrotation
            JOINT HandRight
            {
              OFFSET -4.496888 2.732448 1.685236
              CHANNELS 3 Zrotation Xrotation Yrotation
              JOINT HandTipRight
              {
                OFFSET -5.272360 1.398784 -0.278438
                CHANNELS 3 Zrotation Xrotation Yrotation
                End Site
                {
                  OFFSET 0 0 0
                }
              }
              JOINT ThumbRight
              {
                OFFSET 0.236425 -2.417642 0.951549
                CHANNELS 3 Zrotation Xrotation Yrotation
                End Site
                {
                  OFFSET 0 0 0
                }
              }
            }
          }
        }
      }
    }
  }
  JOINT HipLeft
  {
    OFFSET -5.779286 0.200314 -1.264476
    CHANNELS 3 Zrotation Xrotation Yrotation
    JOINT KneeLeft
    {
      OFFSET 4.025031 -33.484404 3.293431
      CHANNELS 3 Zrotation Xrotation Yrotation
      JOINT AnkleLeft
      {
        OFFSET 6.087009 -31.684156 6.504974
        CHANNELS 3 Zrotation Xrotation Yrotation
        JOINT FootLeft
        {
          OFFSET -3.768484 -1.881999 -11.140708
          CHANNELS 3 Zrotation Xrotation Yrotation
          End Site
          {
            OFFSET 0 0 0
          }
        }
      }
    }
  }
  JOINT HipRight
  {
    OFFSET 5.355889 1.293690 -4.812534
    CHANNELS 3 Zrotation Xrotation Yrotation
    JOINT KneeRight
    {
      OFFSET 4.879032 -32.578393 0.418103
      CHANNELS 3 Zrotation Xrotation Yrotation
      JOINT AnkleRight
      {
        OFFSET 1.999758 -33.435929 7.744571
        CHANNELS 3 Zrotation Xrotation Yrotation
        JOINT FootRight
        {
          OFFSET -3.285339 -2.365443 -9.754682
          CHANNELS 3 Zrotation Xrotation Yrotation
          End Site
          {
            OFFSET 0 0 0
          }
        }
      }
    }
  }
}
MOTION
Frames: 13
Frame Time: 0.033333
25.237492 72.023808 363.305742 0.000000 0.000000 17.673705 -0.000000 0.000000 -17.673705 -0.000000 0.000000 0.000000 -0.000000 0.000000 0.000000 0.000000 0.000000 0.000000 -0.000000 0.000000 0.000000 -0.000000 0.000000 0.000000 -0.000000 0.000000 0.000000 -0.000000 0.000000 0.000000 0.000000 0.000000 0.000000 0.000000 0.000000 0.000000 -0.000000 0.000000 0.000000 -0.000000 0.000000 0.000000 -0.000000 0.000000 0.000000 -0.000000 0.000000 0.000000 0.000000 0.000000 0.000000 0.000000 0.000000 0.000000 -0.000000 0.000000 -17.673705 -0.000000 0.000000 0.000000 -0.000000 0.000000 0.000000 0.000000 0.000000 0.000000 -0.000000 0.000000 -17.673705 -0.000000 0.000000 0.000000 -0.000000 0.000000 0.000000 0.000000 0.000000 0.000000
25.237308 72.001749 363.290639 0.050180 -0.027528 17.790052 -0.039370 0.041544 -17.790025 -0.000000 0.000000 0.000000 -0.000000 0.000000 0.000000 0.000000 0.000000 0.000000 -0.000000 0.000000 0.000000 -0.242763 -0.652013 -1.619633 0.185957 1.332418 2.862769 0.835796 -1.256652 1.135362 0.000000 0.000000 0.000000 0.000000 0.000000 0.000000 0.575875 -0.528851 -0.226852 -3.899669 2.536795 -6.658232 17.710610 0.224678 -0.061071 -13.863471 -4.913097 -4.527800 0.000000 0.000000 0.000000 0.000000 0.000000 0.000000 -0.039370 0.041544 -17.790025 -0.000000 0.000000 0.000000 1.923024 -4.800788 -2.346166 0.000000 0.000000 0.000000 -0.039370 0.041544 -17.790025 -0.000000 0.000000 0.000000 -0.000000 0.000000 0.000000 0.000000 0.000000 0.000000
25.234111 71.980886 363.279099 0.099215 -0.057416 17.918799 -0.076738 0.085156 -17.918692 -0.000000 0.000000 0.000000 0.279793 -1.170912 -0.343735 0.000000 0.000000 0.000000 -0.000000 0.000000 0.000000 -0.420201 -1.078069 -2.535652 0.281983 2.142592 4.435863 1.301055 -2.062471 1.869390 0.000000 0.000000 0.000000 0.000000 0.000000 0.000000 1.046311 -0.706874 -0.342425 -7.520617 4.971917 -12.417358 29.626630 0.161397 0.073742 -22.011418 -8.813719 -9.388112 0.000000 0.000000 0.000000 0.000000 0.000000 0.000000 -0.076738 0.085156 -17.918692 -0.000000 0.000000 0.000000 3.702943 -9.846290 -4.332578 0.000000 0.000000 0.000000 -0.076738 0.085156 -17.918692 -0.778664 -0.364400 -0.204563 0.777374 0.367144 0.199596 0.000000 0.000000 0.000000
25.227900 71.961219 363.271123 0.147118 -0.089674 18.060002 -0.112071 0.130864 -18.059759 -0.000000 0.000000 0.000000 0.446757 -1.689639 -0.496263 0.000000 0.000000 0.000000 -0.536823 -0.829538 0.043457 0.015914 -0.457231 -2.799170 0.336841 2.478628 4.815045 1.401126 -2.461561 2.084451 0.000000 0.000000 0.000000 0.000000 0.000000 0.000000 1.404957 -0.524391 -0.348322 -10.717940 7.037635 -16.836703 37.230019 -1.482357 -0.817399 -26.096608 -10.849019 -12.453647 0.000000 0.000000 0.000000 0.000000 0.000000 0.000000 -0.112071 0.130864 -18.059759 -0.000000 0.000000 0.000000 5.225537 -14.621059 -5.671582 0.000000 0.000000 0.000000 -0.112071 0.130864 -18.059759 -1.027934 -0.469261 -0.270265 1.025744 0.474029 0.261812 0.000000 0.000000 0.000000
25.218676 71.942750 363.266711 0.193902 -0.124317 18.213728 -0.145331 0.178695 -18.213291 -0.000000 0.000000 0.000000 0.631928 -2.160553 -0.634873 0.000000 0.000000 0.000000 -0.697985 -1.098833 0.067148 0.158237 -0.183346 -2.351028 0.364308 2.355195 4.024236 1.140612 -2.467583 1.758080 0.000000 0.000000 0.000000 0.000000 0.000000 0.000000 1.646286 0.018223 -0.246988 -13.456528 8.492519 -19.675325 40.986254 -6.218283 -3.718579 -26.724044 -10.263613 -12.068943 0.000000 0.000000 0.000000 0.000000 0.000000 0.000000 -0.145331 0.178695 -18.213291 -0.000000 0.000000 0.000000 6.402866 -18.495984 -6.093867 0.000000 0.000000 0.000000 -0.145331 0.178695 -18.213291 -1.187601 -0.524971 -0.311788 1.184778 0.531313 0.300853 0.000000 0.000000 0.000000
25.206439 71.925477 363.265862 0.239577 -0.161361 18.380055 -0.176476 0.228671 -18.379365 -0.000000 0.000000 0.000000 0.835251 -2.581529 -0.758964 0.000000 0.000000 0.000000 -0.850175 -1.364512 0.095581 0.371084 0.301611 -1.211203 0.347047 1.755541 2.022121 0.526162 -2.063898 0.951183 0.000000 0.000000 0.000000 0.000000 0.000000 0.000000 1.765788 0.910367 -0.041427 -15.766216 9.161555 -20.844633 39.261355 -15.655303 -10.107585 -23.578522 -5.476314 -7.065852 0.000000 0.000000 0.000000 0.000000 0.000000 0.000000 -0.176476 0.228671 -18.379365 -0.000000 0.000000 0.000000 7.157934 -20.879439 -5.417576 0.000000 0.000000 0.000000 -0.176476 0.228671 -18.379365 -1.259226 -0.532444 -0.329236 1.256201 0.539543 0.317470 0.000000 0.000000 0.000000
25.189533 71.910199 363.269437 0.294873 -0.182445 18.599110 -0.221285 0.266963 -18.598125 -0.000000 0.000000 0.000000 1.087255 -3.063539 -0.899827 0.000000 0.000000 0.000000 -0.974803 -1.446552 0.036705 0.586098 0.757892 0.839786 0.399886 0.682056 -0.895994 -1.941969 -1.584696 -3.699603 0.000000 0.000000 0.000000 0.000000 0.000000 0.000000 2.129710 2.333435 0.251471 -19.176931 10.644523 -24.351036 37.313006 -25.661907 -17.246128 -20.447238 2.691434 6.190909 0.000000 0.000000 0.000000 0.000000 0.000000 0.000000 -0.221285 0.266963 -18.598125 -0.000000 0.000000 0.000000 8.009268 -22.933270 -2.001357 0.000000 0.000000 0.000000 -0.221285 0.266963 -18.598125 -1.309039 -0.464291 -0.336204 1.306336 0.471842 0.325521 0.000000 0.000000 0.000000
25.163556 71.867149 363.277147 0.329898 -0.229101 18.706093 -0.239000 0.322798 -18.704760 -0.000000 0.000000 0.000000 1.358224 -3.417102 -1.004491 0.000000 0.000000 0.000000 -1.271687 -1.975385 0.095530 0.972200 1.754274 3.386943 0.124678 -0.482317 -5.439109 -3.282321 -0.115693 -5.792779 0.000000 0.000000 0.000000 0.000000 0.000000 0.000000 1.976294 4.156977 0.728942 -21.287487 10.019986 -23.573258 -2.116893 -41.923406 -50.087058 -3.637921 30.996143 15.046113 0.000000 0.000000 0.000000 0.000000 0.000000 0.000000 -0.239000 0.322798 -18.704760 -0.000000 0.000000 0.000000 7.578055 -21.257962 1.801288 0.000000 0.000000 0.000000 -0.239000 0.322798 -18.704760 -1.277434 -0.419646 -0.325614 1.140212 0.236082 1.145526 0.000000 0.000000 0.000000
25.150853 71.838903 363.280609 0.385527 -0.277941 18.894572 -0.274755 0.387804 -18.892707 -0.000000 0.000000 0.000000 1.567021 -3.680580 -1.081550 0.000000 0.000000 0.000000 -1.456197 -2.480950 0.235059 1.361242 3.099915 6.384048 -0.454187 -3.085056 -11.872325 -3.616868 2.483181 -3.467076 0.000000 0.000000 0.000000 0.000000 0.000000 0.000000 1.335220 5.696984 1.238936 -20.256184 6.086793 -17.206964 -56.259135 -28.644935 -72.377890 31.091342 54.342801 -9.110403 0.000000 0.000000 0.000000 0.000000 0.000000 0.000000 -0.274755 0.387804 -18.892707 -0.000000 0.000000 0.000000 5.618986 -16.259431 5.205030 0.000000 0.000000 0.000000 -0.274755 0.387804 -18.892707 -0.986691 -0.269055 -0.246948 0.820009 0.030818 1.272147 0.000000 0.000000 0.000000
25.137940 71.850404 363.290536 0.430565 -0.346976 19.181279 -0.292671 0.469172 -19.178777 -0.000000 0.000000 0.000000 1.848377 -3.843655 -1.132948 0.000000 0.000000 0.000000 -1.493721 -2.878497 0.436494 1.640360 4.531718 9.370835 -1.460217 -7.532766 -19.495067 -5.238341 9.736229 -1.931816 0.000000 0.000000 0.000000 0.000000 0.000000 0.000000 0.198753 7.489538 1.940094 -18.467519 2.113795 -11.619706 -68.643663 -19.515617 -68.307375 37.207415 53.952518 -17.816056 0.000000 0.000000 0.000000 0.000000 0.000000 0.000000 -0.292671 0.469172 -19.178777 -0.000000 0.000000 0.000000 2.618046 -9.437643 7.840430 0.000000 0.000000 0.000000 -0.292671 0.469172 -19.178777 -0.000000 0.000000 0.000000 -0.185955 -0.291561 1.181007 0.000000 0.000000 0.000000
25.124069 71.902095 363.307930 0.448758 -0.445958 19.482843 -0.274342 0.570086 -19.479732 0.554492 -0.654918 0.042874 1.729665 -3.280972 -1.231491 0.000000 0.000000 0.000000 -1.967650 -2.509319 0.655198 1.825111 5.981696 12.021406 -2.868600 -14.129847 -26.348880 -7.963396 11.995351 3.061297 0.000000 0.000000 0.000000 0.000000 0.000000 0.000000 -1.186087 9.443829 2.443955 -18.485509 -1.029015 -4.434428 -70.435941 -11.673648 -65.328927 45.373817 53.141401 -17.525025 0.000000 0.000000 0.000000 0.000000 0.000000 0.000000 -0.274342 0.570086 -19.479732 -0.000000 0.000000 0.000000 0.796154 -5.348709 8.499463 0.000000 0.000000 0.000000 -0.274342 0.570086 -19.479732 -0.000000 0.000000 0.000000 -0.190830 -0.325306 1.249920 0.000000 0.000000 0.000000
25.114735 71.991702 363.320916 0.448837 -0.550713 19.986796 -0.233590 0.670948 -19.983271 0.541638 -0.765091 0.041684 2.213263 -3.209137 -1.262362 0.000000 0.000000 0.000000 -1.797530 -2.561735 0.890384 1.971313 7.284607 13.595557 -6.564852 -14.918046 -37.194794 -6.492485 9.000660 13.009526 0.000000 0.000000 0.000000 0.000000 0.000000 0.000000 -2.245219 10.952847 3.100199 -18.954534 -2.631084 -2.112698 -67.468496 -9.308233 -65.428280 31.555616 51.056479 -4.676020 0.000000 0.000000 0.000000 0.000000 0.000000 0.000000 -0.233590 0.670948 -19.983271 -0.000000 0.000000 0.000000 1.385824 -5.737828 4.951001 0.000000 0.000000 0.000000 -0.233590 0.670948 -19.983271 -0.000000 0.000000 0.000000 -0.185282 -0.345260 1.255776 0.000000 0.000000 0.000000
25.103327 72.110053 363.342874 0.448793 -0.658166 20.777848 0.045685 -0.050905 -20.759353 0.061656 -0.159738 0.024210 2.606689 -3.153275 -1.292035 0.000000 0.000000 0.000000 -1.901261 -2.934981 1.093591 2.072967 8.057087 14.751097 -9.656145 -7.495865 -51.150643 0.296929 2.907621 25.643034 0.000000 0.000000 0.000000 0.000000 0.000000 0.000000 -3.504023 12.200505 3.759115 -20.295412 -2.532683 -3.291285 -62.410506 -11.089752 -66.158584 25.836871 49.016766 6.644664 0.000000 0.000000 0.000000 0.000000 0.000000 0.000000 -0.186149 0.774558 -20.774012 0.651520 -0.488643 0.042581 1.134364 -5.015351 0.698371 0.000000 0.000000 0.000000 -0.186149 0.774558 -20.774012 -0.000000 0.000000 0.000000 -0.194745 -0.376040 1.339643 0.000000 0.000000 0.000000
